{"title":"The Heat TS FLV.flv","uid":8655545,"size":516461903,"categoryP":"video","categoryS":"movies","magnet":"?xt=urn:btih:ba6b3170b69fb18e5acb49fb493e50f58b3ea1a5&amp;dn=The+Heat+TS+FLV.flv&amp;tr=udp%3A%2F%2Ftracker.openbittorrent.com%3A80&amp;tr=udp%3A%2F%2Fopen.demonii.com%3A1337&amp;tr=udp%3A%2F%2Ftracker.coppersurfer.tk%3A6969&amp;tr=udp%3A%2F%2Fexodus.desync.com%3A6969","seeders":1,"leechers":0,"uploader":"globeplus","files":-1,"time":1373210115,"description":"The Heat TS FLV.flv\n\nGeneral\n\nFormat                                   : Flash Video\nFile size                                : 493 MiB\nDuration                                 : 1h 50mn\nOverall bit rate                         : 625 Kbps\nTagging application                      : Yet Another Metadata Injector for FLV - Version 1.9\n\nVideo\n\nFormat                                   : AVC\nFormat/Info                              : Advanced Video Codec\nFormat profile                           : &lt;a class=&quot;__cf_email__&quot; href=&quot;/cdn-cgi/l/email-protection&quot; data-cfemail=&quot;4008292728000c736e70&quot;&gt;[email&amp;#160;protected]&lt;/a&gt;&lt;script cf-hash='f9e31' type=&quot;text/javascript&quot;&gt;\n/* &lt;![CDATA[ */!function(){try{var t=&quot;currentScript&quot;in document?document.currentScript:function(){for(var t=document.getElementsByTagName(&quot;script&quot;),e=t.length;e--;)if(t[e].getAttribute(&quot;cf-hash&quot;))return t[e]}();if(t&amp;&amp;t.previousSibling){var e,r,n,i,c=t.previousSibling,a=c.getAttribute(&quot;data-cfemail&quot;);if(a){for(e=&quot;&quot;,r=parseInt(a.substr(0,2),16),n=2;a.length-n;n+=2)i=parseInt(a.substr(n,2),16)^r,e+=String.fromCharCode(i);e=document.createTextNode(e),c.parentNode.replaceChild(e,c)}}}catch(u){}}();/* ]]&gt; */&lt;/script&gt;\nFormat settings, CABAC                   : Yes\nFormat settings, ReFrames                : 4 frames\nCodec ID                                 : 7\nDuration                                 : 1h 50mn\nBit rate                                 : 500 Kbps\nWidth                                    : 720 pixels\nHeight                                   : 282 pixels\nDisplay aspect ratio                     : 2.553\nFrame rate mode                          : Constant\nFrame rate                               : 50.000 fps\nColor space                              : YUV\nChroma subsampling                       : 4:2:0\nBit depth                                : 8 bits\nScan type                                : Progressive\nBits/(Pixel*Frame)                       : 0.049\nStream size                              : 398 MiB (81%)\nWriting library                          : x264 core 118\ntetol=1.0 / qcomp=0.60 / qpmin=0 / qpmax=69 / qpstep=4 / ip_ratio=1.40 / aq=1:1.00\n\nAudio\n\nFormat                                   : AAC\nFormat/Info                              : Advanced Audio Codec\nFormat profile                           : LC\nCodec ID                                 : 10\nDuration                                 : 1h 50mn\nBit rate                                 : 110 Kbps\nChannel(s)                               : 2 channels\nChannel positions                        : Front: L R\nSampling rate                            : 48.0 KHz\nCompression mode                         : Lossy\nDelay relative to video                  : 20ms\nStream size                              : 92.0 MiB (19%)\n\n\n\nPlot\n\nThe film starts with FBI Special Agent Sarah Ashburn (Sandra Bullock) being paired with Detective Shannon Mullins (Melissa McCarthy) who is a foul-mouthed and needlessly violent interrogator. After Mullins finds out about Ashburn's kind disposition, the two don't get along. They eventually warm to each other. Ashburn soon finds out the boss at the police department Levy (Marlon Wayans) has a crush on her and Mullins introduces Ashburn to her family, who all hate Mullins because she put her brother Jason (Michael Rapaport) in prison.\n\n\n\n\n* enjoy ...\n\n","torrent":{"xt":"urn:btih:ba6b3170b69fb18e5acb49fb493e50f58b3ea1a5","amp;dn":"The+Heat+TS+FLV.flv","amp;tr":["udp%3A%2F%2Ftracker.openbittorrent.com%3A80","udp%3A%2F%2Fopen.demonii.com%3A1337","udp%3A%2F%2Ftracker.coppersurfer.tk%3A6969","udp%3A%2F%2Fexodus.desync.com%3A6969"],"infoHash":"ba6b3170b69fb18e5acb49fb493e50f58b3ea1a5","infoHashBuffer":{"type":"Buffer","data":[186,107,49,112,182,159,177,142,90,203,73,251,73,62,80,245,139,62,161,165]},"announce":[],"urlList":[]}}